<svg xmlns="http://www.w3.org/2000/svg" width="48" height="48" fill="none" viewBox="0 0 48 48"><rect width="30" height="38" x="10" y="5" fill="#fff"/><path fill="#cc79a7" fill-rule="evenodd" d="M7.68 0C3.43845 0 0 3.43845 0 7.68V40.32C0 44.5615 3.43845 48 7.68 48H40.32C44.5615 48 48 44.5615 48 40.32V7.68C48 3.43845 44.5615 0 40.32 0H7.68ZM12.48 9.28V38.7712H18.0506V28.777H24.2661L29.1098 38.7712H35.4176L30.093 27.849C31.3823 27.28 32.4062 26.4561 33.1648 25.3773C34.3936 23.616 35.008 21.4997 35.008 19.0285C35.008 17.3764 34.7418 15.8814 34.2093 14.5434C33.6768 13.1917 32.8439 12.0721 31.7107 11.1846C30.5911 10.2972 29.1507 9.71691 27.3894 9.44384C27.0071 9.37557 26.5702 9.33461 26.0787 9.32096C25.6009 9.29365 25.2186 9.28 24.9318 9.28H12.48ZM24.6861 23.575H18.0506V14.4819H24.6861C24.9728 14.4819 25.2868 14.4956 25.6282 14.5229C25.9695 14.5502 26.2835 14.6048 26.5702 14.6867C27.3212 14.8915 27.9014 15.2397 28.311 15.7312C28.7206 16.2091 29.0005 16.7484 29.1507 17.3491C29.3146 17.9362 29.3965 18.496 29.3965 19.0285C29.3965 19.561 29.3146 20.1276 29.1507 20.7283C29.0005 21.3154 28.7206 21.8547 28.311 22.3462C27.9014 22.8241 27.3212 23.1654 26.5702 23.3702C26.2835 23.4522 25.9695 23.5068 25.6282 23.5341C25.2868 23.5614 24.9728 23.575 24.6861 23.575Z" clip-rule="evenodd"/></svg>